<svg display="none" version="1.1" xmlns="http://www.w3.org/2000/svg" xmlns:xlink="http://www.w3.org/1999/xlink" width="272" height="32" viewBox="0 0 272 32">
  <defs>
    <symbol id="icon-twitter-square" viewBox="0 0 1024 1024">
      <path class="path1" d="M731.429 348.571q-32 14.286-69.143 19.429 38.857-22.857 53.143-66.857-37.143 21.714-76.571 29.143-34.857-37.714-87.429-37.714-49.714 0-84.857 35.143t-35.143 84.857q0 16.571 2.857 27.429-73.714-4-138.286-37.143t-109.714-88.571q-16.571 28.571-16.571 60.571 0 65.143 52 100-26.857-0.571-57.143-14.857v1.143q0 42.857 28.571 76.286t70.286 41.429q-16.571 4.571-29.143 4.571-7.429 0-22.286-2.286 12 36 42.571 59.429t69.429 24q-66.286 51.429-149.143 51.429-14.857 0-28.571-1.714 84.571 53.714 184 53.714 64 0 120-20.286t96-54.286 68.857-78.286 42.857-92.571 14-96.286q0-10.286-0.571-15.429 36-25.714 60-62.286zM877.714 237.714v548.571q0 68-48.286 116.286t-116.286 48.286h-548.571q-68 0-116.286-48.286t-48.286-116.286v-548.571q0-68 48.286-116.286t116.286-48.286h548.571q68 0 116.286 48.286t48.286 116.286z"></path>
    </symbol>
    <symbol id="icon-facebook-square" viewBox="0 0 1024 1024">
      <path class="path1" d="M877.714 786.286q0 68-48.286 116.286t-116.286 48.286h-109.714v-347.429h116l17.143-128h-133.143v-81.714q0-30.857 16-47.429t54.857-16.571l75.429-0.571v-118.286q-54.857-5.143-102.857-5.143-77.714 0-124.571 46t-46.857 128.857v94.857h-128v128h128v347.429h-310.857q-68 0-116.286-48.286t-48.286-116.286v-548.571q0-68 48.286-116.286t116.286-48.286h548.571q68 0 116.286 48.286t48.286 116.286v548.571z"></path>
    </symbol>
    <symbol id="icon-laptop" viewBox="0 0 1097 1024">
      <path class="path1" d="M237.714 731.429q-37.714 0-64.571-26.857t-26.857-64.571v-402.286q0-37.714 26.857-64.571t64.571-26.857h621.714q37.714 0 64.571 26.857t26.857 64.571v402.286q0 37.714-26.857 64.571t-64.571 26.857h-621.714zM219.429 237.714v402.286q0 7.429 5.429 12.857t12.857 5.429h621.714q7.429 0 12.857-5.429t5.429-12.857v-402.286q0-7.429-5.429-12.857t-12.857-5.429h-621.714q-7.429 0-12.857 5.429t-5.429 12.857zM1005.714 768h91.429v54.857q0 22.857-26.857 38.857t-64.571 16h-914.286q-37.714 0-64.571-16t-26.857-38.857v-54.857h1005.714zM594.286 822.857q9.143 0 9.143-9.143t-9.143-9.143h-91.429q-9.143 0-9.143 9.143t9.143 9.143h91.429z"></path>
    </symbol>
    <symbol id="icon-smile-o" viewBox="0 0 1024 1024">
      <path class="path1" d="M648 614.286q-21.143 69.143-78.857 111.429t-130.286 42.286-130.286-42.286-78.857-111.429q-4.571-14.286 2.286-27.714t21.714-18q14.286-4.571 27.714 2.286t18 21.714q14.286 45.714 52.857 74t86.571 28.286 86.571-28.286 52.857-74q4.571-14.857 18.286-21.714t28-2.286 21.143 18 2.286 27.714zM365.714 365.714q0 30.286-21.429 51.714t-51.714 21.429-51.714-21.429-21.429-51.714 21.429-51.714 51.714-21.429 51.714 21.429 21.429 51.714zM658.286 365.714q0 30.286-21.429 51.714t-51.714 21.429-51.714-21.429-21.429-51.714 21.429-51.714 51.714-21.429 51.714 21.429 21.429 51.714zM804.571 512q0-74.286-29.143-142t-78-116.571-116.571-78-142-29.143-142 29.143-116.571 78-78 116.571-29.143 142 29.143 142 78 116.571 116.571 78 142 29.143 142-29.143 116.571-78 78-116.571 29.143-142zM877.714 512q0 119.429-58.857 220.286t-159.714 159.714-220.286 58.857-220.286-58.857-159.714-159.714-58.857-220.286 58.857-220.286 159.714-159.714 220.286-58.857 220.286 58.857 159.714 159.714 58.857 220.286z"></path>
    </symbol>
    <symbol id="icon-code" viewBox="0 0 1097 1024">
      <path class="path1" d="M352.571 799.429l-28.571 28.571q-5.714 5.714-13.143 5.714t-13.143-5.714l-266.286-266.286q-5.714-5.714-5.714-13.143t5.714-13.143l266.286-266.286q5.714-5.714 13.143-5.714t13.143 5.714l28.571 28.571q5.714 5.714 5.714 13.143t-5.714 13.143l-224.571 224.571 224.571 224.571q5.714 5.714 5.714 13.143t-5.714 13.143zM690.286 189.714l-213.143 737.714q-2.286 7.429-8.857 11.143t-13.429 1.429l-35.429-9.714q-7.429-2.286-11.143-8.857t-1.429-14l213.143-737.714q2.286-7.429 8.857-11.143t13.429-1.429l35.429 9.714q7.429 2.286 11.143 8.857t1.429 14zM1065.714 561.714l-266.286 266.286q-5.714 5.714-13.143 5.714t-13.143-5.714l-28.571-28.571q-5.714-5.714-5.714-13.143t5.714-13.143l224.571-224.571-224.571-224.571q-5.714-5.714-5.714-13.143t5.714-13.143l28.571-28.571q5.714-5.714 13.143-5.714t13.143 5.714l266.286 266.286q5.714 5.714 5.714 13.143t-5.714 13.143z"></path>
    </symbol>
    <symbol id="icon-rocket" viewBox="0 0 951 1024">
      <path class="path1" d="M822.857 256q0-22.857-16-38.857t-38.857-16-38.857 16-16 38.857 16 38.857 38.857 16 38.857-16 16-38.857zM950.857 91.429q0 142.286-43.143 246t-144.857 206q-46.286 45.714-111.429 100.571l-11.429 216.571q-1.143 9.143-9.143 14.857l-219.429 128q-4 2.286-9.143 2.286-6.857 0-13.143-5.143l-36.571-36.571q-7.429-8-4.571-18.286l48.571-157.714-160.571-160.571-157.714 48.571q-1.714 0.571-5.143 0.571-8 0-13.143-5.143l-36.571-36.571q-9.714-10.857-2.857-22.286l128-219.429q5.714-8 14.857-9.143l216.571-11.429q54.857-65.143 100.571-111.429 107.429-106.857 204.571-147.429t246.286-40.571q8 0 13.714 5.429t5.714 12.857z"></path>
    </symbol>
    <symbol id="icon-ticket" viewBox="0 0 1024 1024">
      <path class="path1" d="M585.143 258.286l180.571 180.571-326.857 326.857-180.571-180.571zM464.571 817.714l353.143-353.143q10.857-10.857 10.857-25.714t-10.857-25.714l-206.857-206.857q-10.286-10.286-25.714-10.286t-25.714 10.286l-353.143 353.143q-10.857 10.857-10.857 25.714t10.857 25.714l206.857 206.857q10.286 10.286 25.714 10.286t25.714-10.286zM972.571 453.714l-518.286 518.857q-21.143 21.143-51.714 21.143t-51.714-21.143l-72-72q32-32 32-77.714t-32-77.714-77.714-32-77.714 32l-71.429-72q-21.143-21.143-21.143-51.714t21.143-51.714l518.286-517.714q21.143-21.143 51.714-21.143t51.714 21.143l71.429 71.429q-32 32-32 77.714t32 77.714 77.714 32 77.714-32l72 71.429q21.143 21.143 21.143 51.714t-21.143 51.714z"></path>
    </symbol>
    <symbol id="icon-paper-plane-o" viewBox="0 0 1024 1024">
      <path class="path1" d="M1008 6.286q18.857 13.714 15.429 36.571l-146.286 877.714q-2.857 16.571-18.286 25.714-8 4.571-17.714 4.571-6.286 0-13.714-2.857l-301.143-122.857-170.286 186.857q-10.286 12-26.857 12-8 0-13.143-2.286-10.857-4-17.143-13.429t-6.286-20.857v-258.286l-269.714-110.286q-21.143-8-22.857-31.429-1.714-22.286 18.286-33.714l950.857-548.571q20-12 38.857 1.143zM812.571 862.857l126.286-756-819.429 472.571 192 78.286 493.143-365.143-273.143 455.429z"></path>
    </symbol>
    <symbol id="icon-calendar" viewBox="0 0 951 1024">
      <path class="path1" d="M73.143 950.857h164.571v-164.571h-164.571v164.571zM274.286 950.857h182.857v-164.571h-182.857v164.571zM73.143 749.714h164.571v-182.857h-164.571v182.857zM274.286 749.714h182.857v-182.857h-182.857v182.857zM73.143 530.286h164.571v-164.571h-164.571v164.571zM493.714 950.857h182.857v-164.571h-182.857v164.571zM274.286 530.286h182.857v-164.571h-182.857v164.571zM713.143 950.857h164.571v-164.571h-164.571v164.571zM493.714 749.714h182.857v-182.857h-182.857v182.857zM292.571 256v-164.571q0-7.429-5.429-12.857t-12.857-5.429h-36.571q-7.429 0-12.857 5.429t-5.429 12.857v164.571q0 7.429 5.429 12.857t12.857 5.429h36.571q7.429 0 12.857-5.429t5.429-12.857zM713.143 749.714h164.571v-182.857h-164.571v182.857zM493.714 530.286h182.857v-164.571h-182.857v164.571zM713.143 530.286h164.571v-164.571h-164.571v164.571zM731.429 256v-164.571q0-7.429-5.429-12.857t-12.857-5.429h-36.571q-7.429 0-12.857 5.429t-5.429 12.857v164.571q0 7.429 5.429 12.857t12.857 5.429h36.571q7.429 0 12.857-5.429t5.429-12.857zM950.857 219.429v731.429q0 29.714-21.714 51.429t-51.429 21.714h-804.571q-29.714 0-51.429-21.714t-21.714-51.429v-731.429q0-29.714 21.714-51.429t51.429-21.714h73.143v-54.857q0-37.714 26.857-64.571t64.571-26.857h36.571q37.714 0 64.571 26.857t26.857 64.571v54.857h219.429v-54.857q0-37.714 26.857-64.571t64.571-26.857h36.571q37.714 0 64.571 26.857t26.857 64.571v54.857h73.143q29.714 0 51.429 21.714t21.714 51.429z"></path>
    </symbol>
    <symbol id="icon-comments" viewBox="0 0 1024 1024">
      <path class="path1" d="M804.571 438.857q0 79.429-53.714 146.857t-146.571 106.571-202 39.143q-49.143 0-100.571-9.143-70.857 50.286-158.857 73.143-20.571 5.143-49.143 9.143h-1.714q-6.286 0-11.714-4.571t-6.571-12q-0.571-1.714-0.571-3.714t0.286-3.714 1.143-3.429l1.429-2.857t2-3.143 2.286-2.857 2.571-2.857 2.286-2.571q2.857-3.429 13.143-14.286t14.857-16.857 12.857-16.571 14.286-22 11.714-25.143q-70.857-41.143-111.429-101.143t-40.571-128q0-79.429 53.714-146.857t146.571-106.571 202-39.143 202 39.143 146.571 106.571 53.714 146.857zM1024 585.143q0 68.571-40.571 128.286t-111.429 100.857q5.714 13.714 11.714 25.143t14.286 22 12.857 16.571 14.857 16.857 13.143 14.286q0.571 0.571 2.286 2.571t2.571 2.857 2.286 2.857 2 3.143l1.429 2.857t1.143 3.429 0.286 3.714-0.571 3.714q-1.714 8-7.429 12.571t-12.571 4q-28.571-4-49.143-9.143-88-22.857-158.857-73.143-51.429 9.143-100.571 9.143-154.857 0-269.714-75.429 33.143 2.286 50.286 2.286 92 0 176.571-25.714t150.857-73.714q71.429-52.571 109.714-121.143t38.286-145.143q0-44-13.143-86.857 73.714 40.571 116.571 101.714t42.857 131.429z"></path>
    </symbol>
    <symbol id="icon-book" viewBox="0 0 951 1024">
      <path class="path1" d="M936.571 273.143q22.857 32.571 10.286 73.714l-157.143 517.714q-10.857 36.571-43.714 61.429t-70 24.857h-527.429q-44 0-84.857-30.571t-56.857-75.143q-13.714-38.286-1.143-72.571 0-2.286 1.714-15.429t2.286-21.143q0.571-4.571-1.714-12.286t-1.714-11.143q1.143-6.286 4.571-12t9.429-13.429 9.429-13.429q13.143-21.714 25.714-52.286t17.143-52.286q1.714-5.714 0.286-17.143t-0.286-16q1.714-6.286 9.714-16t9.714-13.143q12-20.571 24-52.571t14.286-51.429q0.571-5.143-1.429-18.286t0.286-16q2.286-7.429 12.571-17.429t12.571-12.857q10.857-14.857 24.286-48.286t15.714-55.143q0.571-4.571-1.714-14.571t-1.143-15.143q1.143-4.571 5.143-10.286t10.286-13.143 9.714-12q4.571-6.857 9.429-17.429t8.571-20 9.143-20.571 11.143-18.286 15.143-13.429 20.571-6.571 27.143 3.143l-0.571 1.714q21.714-5.143 29.143-5.143h434.857q42.286 0 65.143 32t10.286 74.286l-156.571 517.714q-20.571 68-40.857 87.714t-73.429 19.714h-496.571q-15.429 0-21.714 8.571-6.286 9.143-0.571 24.571 13.714 40 82.286 40h527.429q16.571 0 32-8.857t20-23.714l171.429-564q4-12.571 2.857-32.571 21.714 8.571 33.714 24.571zM328.571 274.286q-2.286 7.429 1.143 12.857t11.429 5.429h347.429q7.429 0 14.571-5.429t9.429-12.857l12-36.571q2.286-7.429-1.143-12.857t-11.429-5.429h-347.429q-7.429 0-14.571 5.429t-9.429 12.857zM281.143 420.571q-2.286 7.429 1.143 12.857t11.429 5.429h347.429q7.429 0 14.571-5.429t9.429-12.857l12-36.571q2.286-7.429-1.143-12.857t-11.429-5.429h-347.429q-7.429 0-14.571 5.429t-9.429 12.857z"></path>
    </symbol>
    <symbol id="icon-trophy" viewBox="0 0 951 1024">
      <path class="path1" d="M261.714 504.571q-42.286-92.571-42.286-212h-146.286v54.857q0 44.571 54 92.571t134.571 64.571zM877.714 347.429v-54.857h-146.286q0 119.429-42.286 212 80.571-16.571 134.571-64.571t54-92.571zM950.857 274.286v73.143q0 40.571-23.714 81.714t-64 74.286-98.857 55.714-123.143 25.429q-24 30.857-54.286 54.286-21.714 19.429-30 41.429t-8.286 51.143q0 30.857 17.429 52t55.714 21.143q42.857 0 76.286 26t33.429 65.429v36.571q0 8-5.143 13.143t-13.143 5.143h-475.429q-8 0-13.143-5.143t-5.143-13.143v-36.571q0-39.429 33.429-65.429t76.286-26q38.286 0 55.714-21.143t17.429-52q0-29.143-8.286-51.143t-30-41.429q-30.286-23.429-54.286-54.286-64.571-2.857-123.143-25.429t-98.857-55.714-64-74.286-23.714-81.714v-73.143q0-22.857 16-38.857t38.857-16h164.571v-54.857q0-37.714 26.857-64.571t64.571-26.857h329.143q37.714 0 64.571 26.857t26.857 64.571v54.857h164.571q22.857 0 38.857 16t16 38.857z"></path>
    </symbol>
  </defs>
</svg>
